<svg width="327" height="184" viewBox="0 0 327 184" fill="none" xmlns="http://www.w3.org/2000/svg">
<rect width="303" height="386" rx="16" fill="#1A1A1A"/>
<path d="M29.92 59.61V57.3C27.98 57.08 26.4 56.4 25.18 55.26C23.96 54.12 23.33 52.59 23.29 50.67H27.34C27.38 51.47 27.62 52.17 28.06 52.77C28.52 53.37 29.14 53.78 29.92 54V47.67C29.74 47.61 29.55 47.55 29.35 47.49C29.17 47.43 28.98 47.37 28.78 47.31C27.16 46.75 25.92 46.03 25.06 45.15C24.22 44.27 23.8 43.1 23.8 41.64C23.78 39.92 24.34 38.54 25.48 37.5C26.62 36.44 28.1 35.83 29.92 35.67V33.24H31.93V35.7C33.73 35.88 35.18 36.51 36.28 37.59C37.4 38.65 37.99 40.02 38.05 41.7H33.94C33.92 41.12 33.73 40.59 33.37 40.11C33.03 39.61 32.55 39.26 31.93 39.06V44.64C32.09 44.7 32.25 44.76 32.41 44.82C32.57 44.86 32.73 44.91 32.89 44.97C33.93 45.33 34.88 45.75 35.74 46.23C36.6 46.71 37.29 47.35 37.81 48.15C38.33 48.93 38.59 49.94 38.59 51.18C38.59 52.22 38.33 53.19 37.81 54.09C37.31 54.99 36.56 55.74 35.56 56.34C34.58 56.92 33.37 57.25 31.93 57.33V59.61H29.92ZM27.82 41.37C27.82 42.01 28.01 42.53 28.39 42.93C28.77 43.31 29.28 43.64 29.92 43.92V38.94C29.3 39.06 28.79 39.33 28.39 39.75C28.01 40.17 27.82 40.71 27.82 41.37ZM34.51 51.45C34.51 50.65 34.27 50.02 33.79 49.56C33.31 49.1 32.69 48.71 31.93 48.39V54.09C32.73 53.97 33.36 53.68 33.82 53.22C34.28 52.76 34.51 52.17 34.51 51.45ZM48.8104 57.36C47.4304 57.36 46.1804 57.12 45.0604 56.64C43.9404 56.14 43.0404 55.38 42.3604 54.36C41.6804 53.34 41.3204 52.06 41.2804 50.52H45.0604C45.0804 51.54 45.4104 52.4 46.0504 53.1C46.7104 53.78 47.6304 54.12 48.8104 54.12C49.9304 54.12 50.7904 53.81 51.3904 53.19C51.9904 52.57 52.2904 51.79 52.2904 50.85C52.2904 49.75 51.8904 48.92 51.0904 48.36C50.3104 47.78 49.3004 47.49 48.0604 47.49H46.5004V44.34H48.0904C49.1104 44.34 49.9604 44.1 50.6404 43.62C51.3204 43.14 51.6604 42.43 51.6604 41.49C51.6604 40.71 51.4004 40.09 50.8804 39.63C50.3804 39.15 49.6804 38.91 48.7804 38.91C47.8004 38.91 47.0304 39.2 46.4704 39.78C45.9304 40.36 45.6304 41.07 45.5704 41.91H41.8204C41.9004 39.97 42.5704 38.44 43.8304 37.32C45.1104 36.2 46.7604 35.64 48.7804 35.64C50.2204 35.64 51.4304 35.9 52.4104 36.42C53.4104 36.92 54.1604 37.59 54.6604 38.43C55.1804 39.27 55.4404 40.2 55.4404 41.22C55.4404 42.4 55.1104 43.4 54.4504 44.22C53.8104 45.02 53.0104 45.56 52.0504 45.84C53.2304 46.08 54.1904 46.66 54.9304 47.58C55.6704 48.48 56.0404 49.62 56.0404 51C56.0404 52.16 55.7604 53.22 55.2004 54.18C54.6404 55.14 53.8204 55.91 52.7404 56.49C51.6804 57.07 50.3704 57.36 48.8104 57.36ZM69.4115 57V53.1H59.0615V50.04L68.9015 36H73.2515V49.77H76.0115V53.1H73.2515V57H69.4115ZM63.1715 49.77H69.6515V40.23L63.1715 49.77ZM86.5602 57.36C85.0202 57.36 83.6902 57.09 82.5702 56.55C81.4702 56.01 80.6002 55.27 79.9602 54.33C79.3402 53.37 78.9802 52.29 78.8802 51.09H82.6302C82.8102 51.95 83.2502 52.67 83.9502 53.25C84.6502 53.81 85.5202 54.09 86.5602 54.09C87.6802 54.09 88.5902 53.68 89.2902 52.86C90.0102 52.04 90.3702 51.02 90.3702 49.8C90.3702 48.54 90.0102 47.54 89.2902 46.8C88.5902 46.06 87.7002 45.69 86.6202 45.69C85.7202 45.69 84.9402 45.91 84.2802 46.35C83.6202 46.79 83.1502 47.34 82.8702 48H79.1802L80.9802 36H92.6202V39.36H83.8602L82.9002 44.22C83.3402 43.74 83.9402 43.35 84.7002 43.05C85.4602 42.73 86.3102 42.57 87.2502 42.57C88.7502 42.57 90.0002 42.91 91.0002 43.59C92.0002 44.25 92.7602 45.13 93.2802 46.23C93.8002 47.31 94.0602 48.49 94.0602 49.77C94.0602 51.23 93.7402 52.53 93.1002 53.67C92.4802 54.81 91.6002 55.71 90.4602 56.37C89.3402 57.03 88.0402 57.36 86.5602 57.36ZM104.504 57.36C103.124 57.36 101.874 57.12 100.754 56.64C99.6338 56.14 98.7338 55.38 98.0538 54.36C97.3738 53.34 97.0138 52.06 96.9738 50.52H100.754C100.774 51.54 101.104 52.4 101.744 53.1C102.404 53.78 103.324 54.12 104.504 54.12C105.624 54.12 106.484 53.81 107.084 53.19C107.684 52.57 107.984 51.79 107.984 50.85C107.984 49.75 107.584 48.92 106.784 48.36C106.004 47.78 104.994 47.49 103.754 47.49H102.194V44.34H103.784C104.804 44.34 105.654 44.1 106.334 43.62C107.014 43.14 107.354 42.43 107.354 41.49C107.354 40.71 107.094 40.09 106.574 39.63C106.074 39.15 105.374 38.91 104.474 38.91C103.494 38.91 102.724 39.2 102.164 39.78C101.624 40.36 101.324 41.07 101.264 41.91H97.5138C97.5938 39.97 98.2638 38.44 99.5238 37.32C100.804 36.2 102.454 35.64 104.474 35.64C105.914 35.64 107.124 35.9 108.104 36.42C109.104 36.92 109.854 37.59 110.354 38.43C110.874 39.27 111.134 40.2 111.134 41.22C111.134 42.4 110.804 43.4 110.144 44.22C109.504 45.02 108.704 45.56 107.744 45.84C108.924 46.08 109.884 46.66 110.624 47.58C111.364 48.48 111.734 49.62 111.734 51C111.734 52.16 111.454 53.22 110.894 54.18C110.334 55.14 109.514 55.91 108.434 56.49C107.374 57.07 106.064 57.36 104.504 57.36ZM117.065 57.21C116.365 57.21 115.785 56.99 115.325 56.55C114.885 56.11 114.665 55.58 114.665 54.96C114.665 54.32 114.885 53.78 115.325 53.34C115.785 52.9 116.365 52.68 117.065 52.68C117.765 52.68 118.335 52.9 118.775 53.34C119.235 53.78 119.465 54.32 119.465 54.96C119.465 55.58 119.235 56.11 118.775 56.55C118.335 56.99 117.765 57.21 117.065 57.21ZM130.121 57.36C128.181 57.36 126.521 56.91 125.141 56.01C123.761 55.09 122.691 53.82 121.931 52.2C121.191 50.56 120.821 48.66 120.821 46.5C120.821 44.36 121.191 42.47 121.931 40.83C122.691 39.19 123.761 37.92 125.141 37.02C126.521 36.1 128.181 35.64 130.121 35.64C132.061 35.64 133.721 36.1 135.101 37.02C136.481 37.92 137.541 39.19 138.281 40.83C139.041 42.47 139.421 44.36 139.421 46.5C139.421 48.66 139.041 50.56 138.281 52.2C137.541 53.82 136.481 55.09 135.101 56.01C133.721 56.91 132.061 57.36 130.121 57.36ZM130.121 53.91C131.701 53.91 132.991 53.25 133.991 51.93C134.991 50.61 135.491 48.8 135.491 46.5C135.491 44.2 134.991 42.39 133.991 41.07C132.991 39.75 131.701 39.09 130.121 39.09C128.521 39.09 127.221 39.75 126.221 41.07C125.241 42.39 124.751 44.2 124.751 46.5C124.751 48.8 125.241 50.61 126.221 51.93C127.221 53.25 128.521 53.91 130.121 53.91ZM151.42 57.36C149.48 57.36 147.82 56.91 146.44 56.01C145.06 55.09 143.99 53.82 143.23 52.2C142.49 50.56 142.12 48.66 142.12 46.5C142.12 44.36 142.49 42.47 143.23 40.83C143.99 39.19 145.06 37.92 146.44 37.02C147.82 36.1 149.48 35.64 151.42 35.64C153.36 35.64 155.02 36.1 156.4 37.02C157.78 37.92 158.84 39.19 159.58 40.83C160.34 42.47 160.72 44.36 160.72 46.5C160.72 48.66 160.34 50.56 159.58 52.2C158.84 53.82 157.78 55.09 156.4 56.01C155.02 56.91 153.36 57.36 151.42 57.36ZM151.42 53.91C153 53.91 154.29 53.25 155.29 51.93C156.29 50.61 156.79 48.8 156.79 46.5C156.79 44.2 156.29 42.39 155.29 41.07C154.29 39.75 153 39.09 151.42 39.09C149.82 39.09 148.52 39.75 147.52 41.07C146.54 42.39 146.05 44.2 146.05 46.5C146.05 48.8 146.54 50.61 147.52 51.93C148.52 53.25 149.82 53.91 151.42 53.91Z" fill="white"/>
<line x1="24" y1="88.5" x2="327" y2="88.5" stroke="#1D1C20"/>
<rect x="23" y="116" width="243" height="10" rx="5" fill="#333333"/>
<rect x="23" y="136" width="243" height="10" rx="5" fill="#333333"/>
<rect x="23" y="156" width="160.123" height="10" rx="5" fill="#333333"/>
</svg>
