<svg width="311" height="253" viewBox="0 0 311 253" fill="none" xmlns="http://www.w3.org/2000/svg">
<rect width="311" height="253" rx="16" fill="#1A1A1A"/>
<path d="M22.278 35V22.4H24.528L28.794 30.788L33.042 22.4H35.292V35H33.384V25.694L29.532 33.2H28.056L24.186 25.712V35H22.278ZM41.9562 35.216C41.1042 35.216 40.3362 35.024 39.6522 34.64C38.9802 34.244 38.4462 33.698 38.0502 33.002C37.6542 32.294 37.4562 31.472 37.4562 30.536C37.4562 29.6 37.6542 28.784 38.0502 28.088C38.4582 27.38 39.0042 26.834 39.6882 26.45C40.3722 26.054 41.1342 25.856 41.9742 25.856C42.8262 25.856 43.5882 26.054 44.2602 26.45C44.9442 26.834 45.4842 27.38 45.8802 28.088C46.2882 28.784 46.4922 29.6 46.4922 30.536C46.4922 31.472 46.2882 32.294 45.8802 33.002C45.4842 33.698 44.9442 34.244 44.2602 34.64C43.5762 35.024 42.8082 35.216 41.9562 35.216ZM41.9562 33.578C42.4122 33.578 42.8322 33.464 43.2162 33.236C43.6122 33.008 43.9302 32.672 44.1702 32.228C44.4102 31.772 44.5302 31.208 44.5302 30.536C44.5302 29.864 44.4102 29.306 44.1702 28.862C43.9422 28.406 43.6302 28.064 43.2342 27.836C42.8502 27.608 42.4302 27.494 41.9742 27.494C41.5182 27.494 41.0922 27.608 40.6962 27.836C40.3122 28.064 40.0002 28.406 39.7602 28.862C39.5202 29.306 39.4002 29.864 39.4002 30.536C39.4002 31.208 39.5202 31.772 39.7602 32.228C40.0002 32.672 40.3122 33.008 40.6962 33.236C41.0802 33.464 41.5002 33.578 41.9562 33.578ZM48.5556 35V26.072H50.2476L50.3916 27.638C50.6676 27.086 51.0696 26.654 51.5976 26.342C52.1376 26.018 52.7556 25.856 53.4516 25.856C54.5316 25.856 55.3776 26.192 55.9896 26.864C56.6136 27.536 56.9256 28.538 56.9256 29.87V35H55.0356V30.068C55.0356 28.34 54.3276 27.476 52.9116 27.476C52.2036 27.476 51.6156 27.728 51.1476 28.232C50.6916 28.736 50.4636 29.456 50.4636 30.392V35H48.5556ZM62.9168 35C62.0408 35 61.3448 34.79 60.8288 34.37C60.3128 33.938 60.0548 33.176 60.0548 32.084V27.674H58.5248V26.072H60.0548L60.2888 23.804H61.9628V26.072H64.4828V27.674H61.9628V32.084C61.9628 32.576 62.0648 32.918 62.2688 33.11C62.4848 33.29 62.8508 33.38 63.3668 33.38H64.3928V35H62.9168ZM66.4501 35V22.04H68.3581V27.512C68.6581 26.996 69.0721 26.594 69.6001 26.306C70.1401 26.006 70.7341 25.856 71.3821 25.856C72.4501 25.856 73.2901 26.192 73.9021 26.864C74.5141 27.536 74.8201 28.538 74.8201 29.87V35H72.9301V30.068C72.9301 28.34 72.2401 27.476 70.8601 27.476C70.1401 27.476 69.5401 27.728 69.0601 28.232C68.5921 28.736 68.3581 29.456 68.3581 30.392V35H66.4501ZM77.0673 35V22.04H78.9753V35H77.0673ZM82.4355 38.96L84.5775 34.262H84.0555L80.5275 26.072H82.5975L85.3335 32.678L88.1955 26.072H90.2115L84.4515 38.96H82.4355ZM91.8522 35V22.4H93.7602V35H91.8522ZM96.2451 35V26.072H97.9371L98.0811 27.638C98.3571 27.086 98.7591 26.654 99.2871 26.342C99.8271 26.018 100.445 25.856 101.141 25.856C102.221 25.856 103.067 26.192 103.679 26.864C104.303 27.536 104.615 28.538 104.615 29.87V35H102.725V30.068C102.725 28.34 102.017 27.476 100.601 27.476C99.8931 27.476 99.3051 27.728 98.8371 28.232C98.3811 28.736 98.1531 29.456 98.1531 30.392V35H96.2451ZM109.224 35L105.876 26.072H107.874L110.358 33.182L112.842 26.072H114.822L111.492 35H109.224ZM120.109 35.216C119.257 35.216 118.489 35.024 117.805 34.64C117.133 34.244 116.599 33.698 116.203 33.002C115.807 32.294 115.609 31.472 115.609 30.536C115.609 29.6 115.807 28.784 116.203 28.088C116.611 27.38 117.157 26.834 117.841 26.45C118.525 26.054 119.287 25.856 120.127 25.856C120.979 25.856 121.741 26.054 122.413 26.45C123.097 26.834 123.637 27.38 124.033 28.088C124.441 28.784 124.645 29.6 124.645 30.536C124.645 31.472 124.441 32.294 124.033 33.002C123.637 33.698 123.097 34.244 122.413 34.64C121.729 35.024 120.961 35.216 120.109 35.216ZM120.109 33.578C120.565 33.578 120.985 33.464 121.369 33.236C121.765 33.008 122.083 32.672 122.323 32.228C122.563 31.772 122.683 31.208 122.683 30.536C122.683 29.864 122.563 29.306 122.323 28.862C122.095 28.406 121.783 28.064 121.387 27.836C121.003 27.608 120.583 27.494 120.127 27.494C119.671 27.494 119.245 27.608 118.849 27.836C118.465 28.064 118.153 28.406 117.913 28.862C117.673 29.306 117.553 29.864 117.553 30.536C117.553 31.208 117.673 31.772 117.913 32.228C118.153 32.672 118.465 33.008 118.849 33.236C119.233 33.464 119.653 33.578 120.109 33.578ZM127.788 24.38C127.428 24.38 127.128 24.272 126.888 24.056C126.66 23.828 126.546 23.546 126.546 23.21C126.546 22.874 126.66 22.598 126.888 22.382C127.128 22.154 127.428 22.04 127.788 22.04C128.148 22.04 128.442 22.154 128.67 22.382C128.91 22.598 129.03 22.874 129.03 23.21C129.03 23.546 128.91 23.828 128.67 24.056C128.442 24.272 128.148 24.38 127.788 24.38ZM126.834 35V26.072H128.742V35H126.834ZM135.491 35.216C134.615 35.216 133.829 35.018 133.133 34.622C132.449 34.226 131.909 33.68 131.513 32.984C131.129 32.276 130.937 31.46 130.937 30.536C130.937 29.612 131.129 28.802 131.513 28.106C131.909 27.398 132.449 26.846 133.133 26.45C133.829 26.054 134.615 25.856 135.491 25.856C136.595 25.856 137.519 26.144 138.263 26.72C139.019 27.296 139.505 28.076 139.721 29.06H137.723C137.603 28.568 137.339 28.184 136.931 27.908C136.523 27.632 136.043 27.494 135.491 27.494C135.023 27.494 134.591 27.614 134.195 27.854C133.799 28.082 133.481 28.424 133.241 28.88C133.001 29.324 132.881 29.876 132.881 30.536C132.881 31.196 133.001 31.754 133.241 32.21C133.481 32.654 133.799 32.996 134.195 33.236C134.591 33.476 135.023 33.596 135.491 33.596C136.043 33.596 136.523 33.458 136.931 33.182C137.339 32.906 137.603 32.516 137.723 32.012H139.721C139.517 32.972 139.037 33.746 138.281 34.334C137.525 34.922 136.595 35.216 135.491 35.216ZM145.966 35.216C145.09 35.216 144.31 35.024 143.626 34.64C142.954 34.244 142.426 33.698 142.042 33.002C141.658 32.306 141.466 31.496 141.466 30.572C141.466 29.636 141.652 28.814 142.024 28.106C142.408 27.398 142.936 26.846 143.608 26.45C144.292 26.054 145.084 25.856 145.984 25.856C146.86 25.856 147.622 26.054 148.27 26.45C148.918 26.834 149.422 27.35 149.782 27.998C150.142 28.646 150.322 29.36 150.322 30.14C150.322 30.26 150.316 30.392 150.304 30.536C150.304 30.668 150.298 30.818 150.286 30.986H143.338C143.398 31.85 143.68 32.51 144.184 32.966C144.7 33.41 145.294 33.632 145.966 33.632C146.506 33.632 146.956 33.512 147.316 33.272C147.688 33.02 147.964 32.684 148.144 32.264H150.052C149.812 33.104 149.332 33.806 148.612 34.37C147.904 34.934 147.022 35.216 145.966 35.216ZM145.966 27.422C145.33 27.422 144.766 27.614 144.274 27.998C143.782 28.37 143.482 28.934 143.374 29.69H148.414C148.378 28.994 148.132 28.442 147.676 28.034C147.22 27.626 146.65 27.422 145.966 27.422Z" fill="white"/>
<circle cx="43" cy="82" r="22" fill="#FBADE0"/>
<path d="M40.3384 79.3135L44.5315 79.3292M40.3148 85.6031L43.4596 85.6149M40.3266 82.4583L46.6163 82.4819" stroke="black" stroke-width="1.4" stroke-linecap="round"/>
<path d="M34.4173 79.2391C35.1112 76.3301 37.3931 74.0654 40.3072 73.3933C42.4117 72.908 44.5999 72.9162 46.7007 73.4174C49.6097 74.1112 51.8745 76.3931 52.5465 79.3072C53.0318 81.4117 53.0236 83.6 52.5225 85.7008C51.8286 88.6097 49.5467 90.8745 46.6326 91.5465C44.5281 92.0318 42.3399 92.0236 40.2391 91.5225C37.3301 90.8286 35.0653 88.5467 34.3933 85.6327C33.908 83.5282 33.9162 81.3399 34.4173 79.2391Z" stroke="black" stroke-width="1.4"/>
<path d="M80.22 81.168C79.3333 81.168 78.638 80.9207 78.134 80.426C77.63 79.9313 77.378 79.2453 77.378 78.368H78.568C78.568 78.8627 78.6893 79.278 78.932 79.614C79.1747 79.95 79.5993 80.118 80.206 80.118C80.794 80.118 81.2 79.9547 81.424 79.628C81.6573 79.3013 81.774 78.8953 81.774 78.41V71.2H82.95V78.41C82.95 79.278 82.7073 79.9547 82.222 80.44C81.746 80.9253 81.0787 81.168 80.22 81.168ZM88.1163 81.168C87.463 81.168 86.875 81.0187 86.3523 80.72C85.8297 80.4213 85.4143 80.0013 85.1063 79.46C84.8077 78.9093 84.6583 78.2653 84.6583 77.528C84.6583 76.7907 84.8123 76.1513 85.1203 75.61C85.4283 75.0593 85.8437 74.6347 86.3663 74.336C86.8983 74.0373 87.491 73.888 88.1443 73.888C88.7977 73.888 89.3857 74.0373 89.9083 74.336C90.431 74.6347 90.8417 75.0593 91.1403 75.61C91.4483 76.1513 91.6023 76.7907 91.6023 77.528C91.6023 78.2653 91.4483 78.9093 91.1403 79.46C90.8323 80.0013 90.4123 80.4213 89.8803 80.72C89.3577 81.0187 88.7697 81.168 88.1163 81.168ZM88.1163 80.16C88.5177 80.16 88.891 80.062 89.2363 79.866C89.5817 79.67 89.8617 79.376 90.0763 78.984C90.291 78.592 90.3983 78.1067 90.3983 77.528C90.3983 76.9493 90.291 76.464 90.0763 76.072C89.871 75.68 89.5957 75.386 89.2503 75.19C88.905 74.994 88.5363 74.896 88.1443 74.896C87.743 74.896 87.3697 74.994 87.0243 75.19C86.679 75.386 86.399 75.68 86.1843 76.072C85.9697 76.464 85.8623 76.9493 85.8623 77.528C85.8623 78.1067 85.9697 78.592 86.1843 78.984C86.399 79.376 86.6743 79.67 87.0103 79.866C87.3557 80.062 87.7243 80.16 88.1163 80.16ZM93.2375 81V70.92H94.4135V75.246C94.6468 74.8167 94.9782 74.4853 95.4075 74.252C95.8368 74.0093 96.3035 73.888 96.8075 73.888C97.6102 73.888 98.2542 74.14 98.7395 74.644C99.2248 75.1387 99.4675 75.904 99.4675 76.94V81H98.3055V77.066C98.3055 75.6193 97.7222 74.896 96.5555 74.896C95.9488 74.896 95.4402 75.1153 95.0295 75.554C94.6188 75.9833 94.4135 76.5993 94.4135 77.402V81H93.2375ZM101.249 81V74.056H102.313L102.383 75.302C102.607 74.8633 102.929 74.518 103.349 74.266C103.769 74.014 104.245 73.888 104.777 73.888C105.599 73.888 106.252 74.14 106.737 74.644C107.232 75.1387 107.479 75.904 107.479 76.94V81H106.303V77.066C106.303 75.6193 105.706 74.896 104.511 74.896C103.914 74.896 103.415 75.1153 103.013 75.554C102.621 75.9833 102.425 76.5993 102.425 77.402V81H101.249ZM117.334 81.168C116.373 81.168 115.542 80.958 114.842 80.538C114.151 80.1087 113.615 79.516 113.232 78.76C112.849 77.9947 112.658 77.108 112.658 76.1C112.658 75.1013 112.849 74.224 113.232 73.468C113.615 72.7027 114.151 72.1053 114.842 71.676C115.542 71.2467 116.373 71.032 117.334 71.032C118.454 71.032 119.364 71.3027 120.064 71.844C120.773 72.376 121.226 73.1227 121.422 74.084H120.12C119.971 73.4773 119.663 72.992 119.196 72.628C118.739 72.2547 118.118 72.068 117.334 72.068C116.634 72.068 116.023 72.2313 115.5 72.558C114.977 72.8753 114.571 73.3373 114.282 73.944C114.002 74.5413 113.862 75.26 113.862 76.1C113.862 76.94 114.002 77.6633 114.282 78.27C114.571 78.8673 114.977 79.3293 115.5 79.656C116.023 79.9733 116.634 80.132 117.334 80.132C118.118 80.132 118.739 79.9547 119.196 79.6C119.663 79.236 119.971 78.7553 120.12 78.158H121.422C121.226 79.1007 120.773 79.838 120.064 80.37C119.364 80.902 118.454 81.168 117.334 81.168ZM123.042 81V70.92H124.218V81H123.042ZM126.86 72.516C126.626 72.516 126.43 72.4413 126.272 72.292C126.122 72.1333 126.048 71.9373 126.048 71.704C126.048 71.48 126.122 71.2933 126.272 71.144C126.43 70.9947 126.626 70.92 126.86 70.92C127.084 70.92 127.275 70.9947 127.434 71.144C127.592 71.2933 127.672 71.48 127.672 71.704C127.672 71.9373 127.592 72.1333 127.434 72.292C127.275 72.4413 127.084 72.516 126.86 72.516ZM126.272 81V74.056H127.448V81H126.272ZM132.617 81.168C131.955 81.168 131.367 81.0187 130.853 80.72C130.34 80.412 129.934 79.9873 129.635 79.446C129.346 78.9047 129.201 78.2653 129.201 77.528C129.201 76.8 129.346 76.1653 129.635 75.624C129.925 75.0733 130.326 74.6487 130.839 74.35C131.362 74.042 131.964 73.888 132.645 73.888C133.317 73.888 133.896 74.042 134.381 74.35C134.876 74.6487 135.254 75.0453 135.515 75.54C135.777 76.0347 135.907 76.5667 135.907 77.136C135.907 77.2387 135.903 77.3413 135.893 77.444C135.893 77.5467 135.893 77.6633 135.893 77.794H130.363C130.391 78.326 130.513 78.7693 130.727 79.124C130.951 79.4693 131.227 79.7307 131.553 79.908C131.889 80.0853 132.244 80.174 132.617 80.174C133.103 80.174 133.509 80.062 133.835 79.838C134.162 79.614 134.4 79.3107 134.549 78.928H135.711C135.525 79.572 135.165 80.1087 134.633 80.538C134.111 80.958 133.439 81.168 132.617 81.168ZM132.617 74.882C132.057 74.882 131.558 75.0547 131.119 75.4C130.69 75.736 130.443 76.2307 130.377 76.884H134.745C134.717 76.2587 134.503 75.7687 134.101 75.414C133.7 75.0593 133.205 74.882 132.617 74.882ZM137.466 81V74.056H138.53L138.6 75.302C138.824 74.8633 139.146 74.518 139.566 74.266C139.986 74.014 140.462 73.888 140.994 73.888C141.815 73.888 142.469 74.14 142.954 74.644C143.449 75.1387 143.696 75.904 143.696 76.94V81H142.52V77.066C142.52 75.6193 141.923 74.896 140.728 74.896C140.131 74.896 139.631 75.1153 139.23 75.554C138.838 75.9833 138.642 76.5993 138.642 77.402V81H137.466ZM148.222 81C147.587 81 147.088 80.846 146.724 80.538C146.36 80.23 146.178 79.6747 146.178 78.872V75.05H144.974V74.056H146.178L146.332 72.39H147.354V74.056H149.398V75.05H147.354V78.872C147.354 79.3107 147.442 79.6093 147.62 79.768C147.797 79.9173 148.11 79.992 148.558 79.992H149.286V81H148.222ZM150.752 82.61V81.504H158.088V82.61H150.752ZM163.024 81.168C162.334 81.168 161.727 81.0093 161.204 80.692C160.691 80.3747 160.29 79.9407 160 79.39C159.72 78.8393 159.58 78.214 159.58 77.514C159.58 76.814 159.725 76.1933 160.014 75.652C160.304 75.1013 160.705 74.672 161.218 74.364C161.732 74.0467 162.338 73.888 163.038 73.888C163.608 73.888 164.112 74.0047 164.55 74.238C164.989 74.4713 165.33 74.798 165.572 75.218V70.92H166.748V81H165.684L165.572 79.852C165.348 80.188 165.026 80.4913 164.606 80.762C164.186 81.0327 163.659 81.168 163.024 81.168ZM163.15 80.146C163.617 80.146 164.028 80.0387 164.382 79.824C164.746 79.6 165.026 79.292 165.222 78.9C165.428 78.508 165.53 78.0507 165.53 77.528C165.53 77.0053 165.428 76.548 165.222 76.156C165.026 75.764 164.746 75.4607 164.382 75.246C164.028 75.022 163.617 74.91 163.15 74.91C162.693 74.91 162.282 75.022 161.918 75.246C161.564 75.4607 161.284 75.764 161.078 76.156C160.882 76.548 160.784 77.0053 160.784 77.528C160.784 78.0507 160.882 78.508 161.078 78.9C161.284 79.292 161.564 79.6 161.918 79.824C162.282 80.0387 162.693 80.146 163.15 80.146ZM171.829 81.168C171.176 81.168 170.588 81.0187 170.065 80.72C169.543 80.4213 169.127 80.0013 168.819 79.46C168.521 78.9093 168.371 78.2653 168.371 77.528C168.371 76.7907 168.525 76.1513 168.833 75.61C169.141 75.0593 169.557 74.6347 170.079 74.336C170.611 74.0373 171.204 73.888 171.857 73.888C172.511 73.888 173.099 74.0373 173.621 74.336C174.144 74.6347 174.555 75.0593 174.853 75.61C175.161 76.1513 175.315 76.7907 175.315 77.528C175.315 78.2653 175.161 78.9093 174.853 79.46C174.545 80.0013 174.125 80.4213 173.593 80.72C173.071 81.0187 172.483 81.168 171.829 81.168ZM171.829 80.16C172.231 80.16 172.604 80.062 172.949 79.866C173.295 79.67 173.575 79.376 173.789 78.984C174.004 78.592 174.111 78.1067 174.111 77.528C174.111 76.9493 174.004 76.464 173.789 76.072C173.584 75.68 173.309 75.386 172.963 75.19C172.618 74.994 172.249 74.896 171.857 74.896C171.456 74.896 171.083 74.994 170.737 75.19C170.392 75.386 170.112 75.68 169.897 76.072C169.683 76.464 169.575 76.9493 169.575 77.528C169.575 78.1067 169.683 78.592 169.897 78.984C170.112 79.376 170.387 79.67 170.723 79.866C171.069 80.062 171.437 80.16 171.829 80.16ZM178.091 81L176.061 74.056H177.237L178.707 79.502L180.331 74.056H181.661L183.299 79.502L184.755 74.056H185.945L183.915 81H182.711L181.003 75.274L179.295 81H178.091ZM187.245 81V74.056H188.309L188.379 75.302C188.603 74.8633 188.925 74.518 189.345 74.266C189.765 74.014 190.241 73.888 190.773 73.888C191.595 73.888 192.248 74.14 192.733 74.644C193.228 75.1387 193.475 75.904 193.475 76.94V81H192.299V77.066C192.299 75.6193 191.702 74.896 190.507 74.896C189.91 74.896 189.411 75.1153 189.009 75.554C188.617 75.9833 188.421 76.5993 188.421 77.402V81H187.245ZM195.257 81V70.92H196.433V81H195.257ZM201.525 81.168C200.871 81.168 200.283 81.0187 199.761 80.72C199.238 80.4213 198.823 80.0013 198.515 79.46C198.216 78.9093 198.067 78.2653 198.067 77.528C198.067 76.7907 198.221 76.1513 198.529 75.61C198.837 75.0593 199.252 74.6347 199.775 74.336C200.307 74.0373 200.899 73.888 201.553 73.888C202.206 73.888 202.794 74.0373 203.317 74.336C203.839 74.6347 204.25 75.0593 204.549 75.61C204.857 76.1513 205.011 76.7907 205.011 77.528C205.011 78.2653 204.857 78.9093 204.549 79.46C204.241 80.0013 203.821 80.4213 203.289 80.72C202.766 81.0187 202.178 81.168 201.525 81.168ZM201.525 80.16C201.926 80.16 202.299 80.062 202.645 79.866C202.99 79.67 203.27 79.376 203.485 78.984C203.699 78.592 203.807 78.1067 203.807 77.528C203.807 76.9493 203.699 76.464 203.485 76.072C203.279 75.68 203.004 75.386 202.659 75.19C202.313 74.994 201.945 74.896 201.553 74.896C201.151 74.896 200.778 74.994 200.433 75.19C200.087 75.386 199.807 75.68 199.593 76.072C199.378 76.464 199.271 76.9493 199.271 77.528C199.271 78.1067 199.378 78.592 199.593 78.984C199.807 79.376 200.083 79.67 200.419 79.866C200.764 80.062 201.133 80.16 201.525 80.16ZM208.956 81.168C208.377 81.168 207.896 81.07 207.514 80.874C207.131 80.678 206.846 80.4167 206.66 80.09C206.473 79.7633 206.38 79.4087 206.38 79.026C206.38 78.3167 206.65 77.7707 207.192 77.388C207.733 77.0053 208.47 76.814 209.404 76.814H211.28V76.73C211.28 76.1233 211.121 75.666 210.804 75.358C210.486 75.0407 210.062 74.882 209.53 74.882C209.072 74.882 208.676 74.9987 208.34 75.232C208.013 75.456 207.808 75.7873 207.724 76.226H206.52C206.566 75.722 206.734 75.2973 207.024 74.952C207.322 74.6067 207.691 74.3453 208.13 74.168C208.568 73.9813 209.035 73.888 209.53 73.888C210.5 73.888 211.228 74.1493 211.714 74.672C212.208 75.1853 212.456 75.8713 212.456 76.73V81H211.406L211.336 79.754C211.14 80.146 210.85 80.482 210.468 80.762C210.094 81.0327 209.59 81.168 208.956 81.168ZM209.138 80.174C209.586 80.174 209.968 80.0573 210.286 79.824C210.612 79.5907 210.86 79.2873 211.028 78.914C211.196 78.5407 211.28 78.1487 211.28 77.738V77.724H209.502C208.811 77.724 208.321 77.8453 208.032 78.088C207.752 78.3213 207.612 78.6153 207.612 78.97C207.612 79.334 207.742 79.628 208.004 79.852C208.274 80.0667 208.652 80.174 209.138 80.174ZM217.37 81.168C216.679 81.168 216.073 81.0093 215.55 80.692C215.037 80.3747 214.635 79.9407 214.346 79.39C214.066 78.8393 213.926 78.214 213.926 77.514C213.926 76.814 214.071 76.1933 214.36 75.652C214.649 75.1013 215.051 74.672 215.564 74.364C216.077 74.0467 216.684 73.888 217.384 73.888C217.953 73.888 218.457 74.0047 218.896 74.238C219.335 74.4713 219.675 74.798 219.918 75.218V70.92H221.094V81H220.03L219.918 79.852C219.694 80.188 219.372 80.4913 218.952 80.762C218.532 81.0327 218.005 81.168 217.37 81.168ZM217.496 80.146C217.963 80.146 218.373 80.0387 218.728 79.824C219.092 79.6 219.372 79.292 219.568 78.9C219.773 78.508 219.876 78.0507 219.876 77.528C219.876 77.0053 219.773 76.548 219.568 76.156C219.372 75.764 219.092 75.4607 218.728 75.246C218.373 75.022 217.963 74.91 217.496 74.91C217.039 74.91 216.628 75.022 216.264 75.246C215.909 75.4607 215.629 75.764 215.424 76.156C215.228 76.548 215.13 77.0053 215.13 77.528C215.13 78.0507 215.228 78.508 215.424 78.9C215.629 79.292 215.909 79.6 216.264 79.824C216.628 80.0387 217.039 80.146 217.496 80.146ZM223.417 81.07C223.184 81.07 222.988 80.9953 222.829 80.846C222.68 80.6873 222.605 80.496 222.605 80.272C222.605 80.048 222.68 79.8613 222.829 79.712C222.988 79.5533 223.184 79.474 223.417 79.474C223.641 79.474 223.828 79.5533 223.977 79.712C224.136 79.8613 224.215 80.048 224.215 80.272C224.215 80.496 224.136 80.6873 223.977 80.846C223.828 80.9953 223.641 81.07 223.417 81.07ZM225.815 81V71.2H229.035C229.801 71.2 230.431 71.326 230.925 71.578C231.42 71.83 231.784 72.1707 232.017 72.6C232.26 73.0293 232.381 73.5147 232.381 74.056C232.381 74.588 232.265 75.0687 232.031 75.498C231.798 75.9273 231.434 76.2727 230.939 76.534C230.445 76.786 229.81 76.912 229.035 76.912H226.991V81H225.815ZM226.991 75.918H229.007C229.791 75.918 230.347 75.7547 230.673 75.428C231.009 75.092 231.177 74.6347 231.177 74.056C231.177 73.468 231.009 73.0107 230.673 72.684C230.347 72.348 229.791 72.18 229.007 72.18H226.991V75.918ZM236.593 81.168C235.902 81.168 235.295 81.0093 234.773 80.692C234.259 80.3747 233.858 79.9407 233.569 79.39C233.289 78.8393 233.149 78.214 233.149 77.514C233.149 76.814 233.293 76.1933 233.583 75.652C233.872 75.1013 234.273 74.672 234.787 74.364C235.3 74.0467 235.907 73.888 236.607 73.888C237.176 73.888 237.68 74.0047 238.119 74.238C238.557 74.4713 238.898 74.798 239.141 75.218V70.92H240.317V81H239.253L239.141 79.852C238.917 80.188 238.595 80.4913 238.175 80.762C237.755 81.0327 237.227 81.168 236.593 81.168ZM236.719 80.146C237.185 80.146 237.596 80.0387 237.951 79.824C238.315 79.6 238.595 79.292 238.791 78.9C238.996 78.508 239.099 78.0507 239.099 77.528C239.099 77.0053 238.996 76.548 238.791 76.156C238.595 75.764 238.315 75.4607 237.951 75.246C237.596 75.022 237.185 74.91 236.719 74.91C236.261 74.91 235.851 75.022 235.487 75.246C235.132 75.4607 234.852 75.764 234.647 76.156C234.451 76.548 234.353 77.0053 234.353 77.528C234.353 78.0507 234.451 78.508 234.647 78.9C234.852 79.292 235.132 79.6 235.487 79.824C235.851 80.0387 236.261 80.146 236.719 80.146ZM242.612 81V75.05H241.562V74.056H242.612V72.852C242.612 72.18 242.78 71.69 243.116 71.382C243.452 71.074 243.942 70.92 244.586 70.92H245.286V71.928H244.768C244.413 71.928 244.161 72.0027 244.012 72.152C243.862 72.292 243.788 72.5347 243.788 72.88V74.056H245.496V75.05H243.788V81H242.612Z" fill="white"/>
<rect x="77" y="94" width="169" height="8" rx="4" fill="#333333"/>
<path d="M290 61.3977C290 60.629 289.371 60 288.602 60C287.834 60 287.205 60.629 287.205 61.3977C287.205 62.1665 287.834 62.7954 288.602 62.7954C289.371 62.7954 290 62.1665 290 61.3977Z" fill="#A4A4A4"/>
<path d="M290 71.1817C290 70.4129 289.371 69.784 288.602 69.784C287.834 69.784 287.205 70.4129 287.205 71.1817C287.205 71.9504 287.834 72.5794 288.602 72.5794C289.371 72.5794 290 71.9504 290 71.1817Z" fill="#A4A4A4"/>
<path d="M290 66.2897C290 65.521 289.371 64.892 288.602 64.892C287.834 64.892 287.205 65.521 287.205 66.2897C287.205 67.0584 287.834 67.6874 288.602 67.6874C289.371 67.6874 290 67.0584 290 66.2897Z" fill="#A4A4A4"/>
<circle cx="43" cy="147" r="22" fill="#6893FF"/>
<path d="M40.3384 144.313L44.5315 144.329M40.3148 150.603L43.4596 150.615M40.3266 147.458L46.6163 147.482" stroke="black" stroke-width="1.4" stroke-linecap="round"/>
<path d="M34.4173 144.239C35.1112 141.33 37.3931 139.065 40.3072 138.393C42.4117 137.908 44.5999 137.916 46.7007 138.417C49.6097 139.111 51.8745 141.393 52.5465 144.307C53.0318 146.412 53.0236 148.6 52.5225 150.701C51.8286 153.61 49.5467 155.874 46.6326 156.546C44.5281 157.032 42.3399 157.024 40.2391 156.522C37.3301 155.829 35.0653 153.547 34.3933 150.633C33.908 148.528 33.9162 146.34 34.4173 144.239Z" stroke="black" stroke-width="1.4"/>
<path d="M78.036 146V136.2H79.408L82.936 143.032L86.436 136.2H87.822V146H86.646V138.3L83.37 144.6H82.488L79.212 138.314V146H78.036ZM90.5335 137.516C90.3002 137.516 90.1042 137.441 89.9455 137.292C89.7962 137.133 89.7215 136.937 89.7215 136.704C89.7215 136.48 89.7962 136.293 89.9455 136.144C90.1042 135.995 90.3002 135.92 90.5335 135.92C90.7575 135.92 90.9488 135.995 91.1075 136.144C91.2662 136.293 91.3455 136.48 91.3455 136.704C91.3455 136.937 91.2662 137.133 91.1075 137.292C90.9488 137.441 90.7575 137.516 90.5335 137.516ZM89.9455 146V139.056H91.1215V146H89.9455ZM96.3611 146.168C95.6985 146.168 95.1011 146.019 94.5691 145.72C94.0465 145.412 93.6311 144.987 93.3231 144.446C93.0245 143.895 92.8751 143.256 92.8751 142.528C92.8751 141.8 93.0245 141.165 93.3231 140.624C93.6311 140.073 94.0465 139.649 94.5691 139.35C95.1011 139.042 95.6985 138.888 96.3611 138.888C97.1825 138.888 97.8731 139.103 98.4331 139.532C99.0025 139.961 99.3618 140.535 99.5111 141.254H98.3071C98.2138 140.825 97.9851 140.493 97.6211 140.26C97.2571 140.017 96.8325 139.896 96.3471 139.896C95.9551 139.896 95.5865 139.994 95.2411 140.19C94.8958 140.386 94.6158 140.68 94.4011 141.072C94.1865 141.464 94.0791 141.949 94.0791 142.528C94.0791 143.107 94.1865 143.592 94.4011 143.984C94.6158 144.376 94.8958 144.675 95.2411 144.88C95.5865 145.076 95.9551 145.174 96.3471 145.174C96.8325 145.174 97.2571 145.057 97.6211 144.824C97.9851 144.581 98.2138 144.241 98.3071 143.802H99.5111C99.3711 144.502 99.0165 145.071 98.4471 145.51C97.8778 145.949 97.1825 146.168 96.3611 146.168ZM101.154 146V135.92H102.33V140.246C102.563 139.817 102.894 139.485 103.324 139.252C103.753 139.009 104.22 138.888 104.724 138.888C105.526 138.888 106.17 139.14 106.656 139.644C107.141 140.139 107.383 140.904 107.383 141.94V146H106.222V142.066C106.222 140.619 105.638 139.896 104.472 139.896C103.865 139.896 103.356 140.115 102.946 140.554C102.535 140.983 102.33 141.599 102.33 142.402V146H101.154ZM112.287 146.168C111.625 146.168 111.037 146.019 110.523 145.72C110.01 145.412 109.604 144.987 109.305 144.446C109.016 143.905 108.871 143.265 108.871 142.528C108.871 141.8 109.016 141.165 109.305 140.624C109.595 140.073 109.996 139.649 110.509 139.35C111.032 139.042 111.634 138.888 112.315 138.888C112.987 138.888 113.566 139.042 114.051 139.35C114.546 139.649 114.924 140.045 115.185 140.54C115.447 141.035 115.577 141.567 115.577 142.136C115.577 142.239 115.573 142.341 115.563 142.444C115.563 142.547 115.563 142.663 115.563 142.794H110.033C110.061 143.326 110.183 143.769 110.397 144.124C110.621 144.469 110.897 144.731 111.223 144.908C111.559 145.085 111.914 145.174 112.287 145.174C112.773 145.174 113.179 145.062 113.505 144.838C113.832 144.614 114.07 144.311 114.219 143.928H115.381C115.195 144.572 114.835 145.109 114.303 145.538C113.781 145.958 113.109 146.168 112.287 146.168ZM112.287 139.882C111.727 139.882 111.228 140.055 110.789 140.4C110.36 140.736 110.113 141.231 110.047 141.884H114.415C114.387 141.259 114.173 140.769 113.771 140.414C113.37 140.059 112.875 139.882 112.287 139.882ZM117.136 146V135.92H118.312V146H117.136ZM123.361 146.168C122.699 146.168 122.111 146.019 121.597 145.72C121.084 145.412 120.678 144.987 120.379 144.446C120.09 143.905 119.945 143.265 119.945 142.528C119.945 141.8 120.09 141.165 120.379 140.624C120.669 140.073 121.07 139.649 121.583 139.35C122.106 139.042 122.708 138.888 123.389 138.888C124.061 138.888 124.64 139.042 125.125 139.35C125.62 139.649 125.998 140.045 126.259 140.54C126.521 141.035 126.651 141.567 126.651 142.136C126.651 142.239 126.647 142.341 126.637 142.444C126.637 142.547 126.637 142.663 126.637 142.794H121.107C121.135 143.326 121.257 143.769 121.471 144.124C121.695 144.469 121.971 144.731 122.297 144.908C122.633 145.085 122.988 145.174 123.361 145.174C123.847 145.174 124.253 145.062 124.579 144.838C124.906 144.614 125.144 144.311 125.293 143.928H126.455C126.269 144.572 125.909 145.109 125.377 145.538C124.855 145.958 124.183 146.168 123.361 146.168ZM123.361 139.882C122.801 139.882 122.302 140.055 121.863 140.4C121.434 140.736 121.187 141.231 121.121 141.884H125.489C125.461 141.259 125.247 140.769 124.845 140.414C124.444 140.059 123.949 139.882 123.361 139.882ZM131.985 146V136.2H133.161V145.062H137.725V146H131.985ZM142.092 146.168C141.429 146.168 140.841 146.019 140.328 145.72C139.815 145.412 139.409 144.987 139.11 144.446C138.821 143.905 138.676 143.265 138.676 142.528C138.676 141.8 138.821 141.165 139.11 140.624C139.399 140.073 139.801 139.649 140.314 139.35C140.837 139.042 141.439 138.888 142.12 138.888C142.792 138.888 143.371 139.042 143.856 139.35C144.351 139.649 144.729 140.045 144.99 140.54C145.251 141.035 145.382 141.567 145.382 142.136C145.382 142.239 145.377 142.341 145.368 142.444C145.368 142.547 145.368 142.663 145.368 142.794H139.838C139.866 143.326 139.987 143.769 140.202 144.124C140.426 144.469 140.701 144.731 141.028 144.908C141.364 145.085 141.719 145.174 142.092 145.174C142.577 145.174 142.983 145.062 143.31 144.838C143.637 144.614 143.875 144.311 144.024 143.928H145.186C144.999 144.572 144.64 145.109 144.108 145.538C143.585 145.958 142.913 146.168 142.092 146.168ZM142.092 139.882C141.532 139.882 141.033 140.055 140.594 140.4C140.165 140.736 139.917 141.231 139.852 141.884H144.22C144.192 141.259 143.977 140.769 143.576 140.414C143.175 140.059 142.68 139.882 142.092 139.882ZM150.105 146.168C149.451 146.168 148.863 146.019 148.341 145.72C147.818 145.421 147.403 145.001 147.095 144.46C146.796 143.909 146.647 143.265 146.647 142.528C146.647 141.791 146.801 141.151 147.109 140.61C147.417 140.059 147.832 139.635 148.355 139.336C148.887 139.037 149.479 138.888 150.133 138.888C150.786 138.888 151.374 139.037 151.897 139.336C152.419 139.635 152.83 140.059 153.129 140.61C153.437 141.151 153.591 141.791 153.591 142.528C153.591 143.265 153.437 143.909 153.129 144.46C152.821 145.001 152.401 145.421 151.869 145.72C151.346 146.019 150.758 146.168 150.105 146.168ZM150.105 145.16C150.506 145.16 150.879 145.062 151.225 144.866C151.57 144.67 151.85 144.376 152.065 143.984C152.279 143.592 152.387 143.107 152.387 142.528C152.387 141.949 152.279 141.464 152.065 141.072C151.859 140.68 151.584 140.386 151.239 140.19C150.893 139.994 150.525 139.896 150.133 139.896C149.731 139.896 149.358 139.994 149.013 140.19C148.667 140.386 148.387 140.68 148.173 141.072C147.958 141.464 147.851 141.949 147.851 142.528C147.851 143.107 147.958 143.592 148.173 143.984C148.387 144.376 148.663 144.67 148.999 144.866C149.344 145.062 149.713 145.16 150.105 145.16ZM157.886 146.168C157.055 146.168 156.364 145.958 155.814 145.538C155.263 145.118 154.941 144.549 154.848 143.83H156.052C156.126 144.194 156.318 144.511 156.626 144.782C156.943 145.043 157.368 145.174 157.9 145.174C158.394 145.174 158.758 145.071 158.992 144.866C159.225 144.651 159.342 144.399 159.342 144.11C159.342 143.69 159.188 143.41 158.88 143.27C158.581 143.13 158.156 143.004 157.606 142.892C157.232 142.817 156.859 142.71 156.486 142.57C156.112 142.43 155.8 142.234 155.548 141.982C155.296 141.721 155.17 141.38 155.17 140.96C155.17 140.353 155.394 139.859 155.842 139.476C156.299 139.084 156.915 138.888 157.69 138.888C158.427 138.888 159.029 139.075 159.496 139.448C159.972 139.812 160.247 140.335 160.322 141.016H159.16C159.113 140.661 158.959 140.386 158.698 140.19C158.446 139.985 158.105 139.882 157.676 139.882C157.256 139.882 156.929 139.971 156.696 140.148C156.472 140.325 156.36 140.559 156.36 140.848C156.36 141.128 156.504 141.347 156.794 141.506C157.092 141.665 157.494 141.8 157.998 141.912C158.427 142.005 158.833 142.122 159.216 142.262C159.608 142.393 159.925 142.593 160.168 142.864C160.42 143.125 160.546 143.508 160.546 144.012C160.555 144.637 160.317 145.155 159.832 145.566C159.356 145.967 158.707 146.168 157.886 146.168ZM162.086 147.61V146.504H169.422V147.61H162.086ZM174.358 146.168C173.668 146.168 173.061 146.009 172.538 145.692C172.025 145.375 171.624 144.941 171.334 144.39C171.054 143.839 170.914 143.214 170.914 142.514C170.914 141.814 171.059 141.193 171.348 140.652C171.638 140.101 172.039 139.672 172.552 139.364C173.066 139.047 173.672 138.888 174.372 138.888C174.942 138.888 175.446 139.005 175.884 139.238C176.323 139.471 176.664 139.798 176.906 140.218V135.92H178.082V146H177.018L176.906 144.852C176.682 145.188 176.36 145.491 175.94 145.762C175.52 146.033 174.993 146.168 174.358 146.168ZM174.484 145.146C174.951 145.146 175.362 145.039 175.716 144.824C176.08 144.6 176.36 144.292 176.556 143.9C176.762 143.508 176.864 143.051 176.864 142.528C176.864 142.005 176.762 141.548 176.556 141.156C176.36 140.764 176.08 140.461 175.716 140.246C175.362 140.022 174.951 139.91 174.484 139.91C174.027 139.91 173.616 140.022 173.252 140.246C172.898 140.461 172.618 140.764 172.412 141.156C172.216 141.548 172.118 142.005 172.118 142.528C172.118 143.051 172.216 143.508 172.412 143.9C172.618 144.292 172.898 144.6 173.252 144.824C173.616 145.039 174.027 145.146 174.484 145.146ZM183.163 146.168C182.51 146.168 181.922 146.019 181.399 145.72C180.877 145.421 180.461 145.001 180.153 144.46C179.855 143.909 179.705 143.265 179.705 142.528C179.705 141.791 179.859 141.151 180.167 140.61C180.475 140.059 180.891 139.635 181.413 139.336C181.945 139.037 182.538 138.888 183.191 138.888C183.845 138.888 184.433 139.037 184.955 139.336C185.478 139.635 185.889 140.059 186.187 140.61C186.495 141.151 186.649 141.791 186.649 142.528C186.649 143.265 186.495 143.909 186.187 144.46C185.879 145.001 185.459 145.421 184.927 145.72C184.405 146.019 183.817 146.168 183.163 146.168ZM183.163 145.16C183.565 145.16 183.938 145.062 184.283 144.866C184.629 144.67 184.909 144.376 185.123 143.984C185.338 143.592 185.445 143.107 185.445 142.528C185.445 141.949 185.338 141.464 185.123 141.072C184.918 140.68 184.643 140.386 184.297 140.19C183.952 139.994 183.583 139.896 183.191 139.896C182.79 139.896 182.417 139.994 182.071 140.19C181.726 140.386 181.446 140.68 181.231 141.072C181.017 141.464 180.909 141.949 180.909 142.528C180.909 143.107 181.017 143.592 181.231 143.984C181.446 144.376 181.721 144.67 182.057 144.866C182.403 145.062 182.771 145.16 183.163 145.16ZM189.425 146L187.395 139.056H188.571L190.041 144.502L191.665 139.056H192.995L194.633 144.502L196.089 139.056H197.279L195.249 146H194.045L192.337 140.274L190.629 146H189.425ZM198.579 146V139.056H199.643L199.713 140.302C199.937 139.863 200.259 139.518 200.679 139.266C201.099 139.014 201.575 138.888 202.107 138.888C202.929 138.888 203.582 139.14 204.067 139.644C204.562 140.139 204.809 140.904 204.809 141.94V146H203.633V142.066C203.633 140.619 203.036 139.896 201.841 139.896C201.244 139.896 200.745 140.115 200.343 140.554C199.951 140.983 199.755 141.599 199.755 142.402V146H198.579ZM206.591 146V135.92H207.767V146H206.591ZM212.859 146.168C212.205 146.168 211.617 146.019 211.095 145.72C210.572 145.421 210.157 145.001 209.849 144.46C209.55 143.909 209.401 143.265 209.401 142.528C209.401 141.791 209.555 141.151 209.863 140.61C210.171 140.059 210.586 139.635 211.109 139.336C211.641 139.037 212.233 138.888 212.887 138.888C213.54 138.888 214.128 139.037 214.651 139.336C215.173 139.635 215.584 140.059 215.883 140.61C216.191 141.151 216.345 141.791 216.345 142.528C216.345 143.265 216.191 143.909 215.883 144.46C215.575 145.001 215.155 145.421 214.623 145.72C214.1 146.019 213.512 146.168 212.859 146.168ZM212.859 145.16C213.26 145.16 213.633 145.062 213.979 144.866C214.324 144.67 214.604 144.376 214.819 143.984C215.033 143.592 215.141 143.107 215.141 142.528C215.141 141.949 215.033 141.464 214.819 141.072C214.613 140.68 214.338 140.386 213.993 140.19C213.647 139.994 213.279 139.896 212.887 139.896C212.485 139.896 212.112 139.994 211.767 140.19C211.421 140.386 211.141 140.68 210.927 141.072C210.712 141.464 210.605 141.949 210.605 142.528C210.605 143.107 210.712 143.592 210.927 143.984C211.141 144.376 211.417 144.67 211.753 144.866C212.098 145.062 212.467 145.16 212.859 145.16ZM220.29 146.168C219.711 146.168 219.23 146.07 218.848 145.874C218.465 145.678 218.18 145.417 217.994 145.09C217.807 144.763 217.714 144.409 217.714 144.026C217.714 143.317 217.984 142.771 218.526 142.388C219.067 142.005 219.804 141.814 220.738 141.814H222.614V141.73C222.614 141.123 222.455 140.666 222.138 140.358C221.82 140.041 221.396 139.882 220.864 139.882C220.406 139.882 220.01 139.999 219.674 140.232C219.347 140.456 219.142 140.787 219.058 141.226H217.854C217.9 140.722 218.068 140.297 218.358 139.952C218.656 139.607 219.025 139.345 219.464 139.168C219.902 138.981 220.369 138.888 220.864 138.888C221.834 138.888 222.562 139.149 223.048 139.672C223.542 140.185 223.79 140.871 223.79 141.73V146H222.74L222.67 144.754C222.474 145.146 222.184 145.482 221.802 145.762C221.428 146.033 220.924 146.168 220.29 146.168ZM220.472 145.174C220.92 145.174 221.302 145.057 221.62 144.824C221.946 144.591 222.194 144.287 222.362 143.914C222.53 143.541 222.614 143.149 222.614 142.738V142.724H220.836C220.145 142.724 219.655 142.845 219.366 143.088C219.086 143.321 218.946 143.615 218.946 143.97C218.946 144.334 219.076 144.628 219.338 144.852C219.608 145.067 219.986 145.174 220.472 145.174ZM228.704 146.168C228.013 146.168 227.407 146.009 226.884 145.692C226.371 145.375 225.969 144.941 225.68 144.39C225.4 143.839 225.26 143.214 225.26 142.514C225.26 141.814 225.405 141.193 225.694 140.652C225.983 140.101 226.385 139.672 226.898 139.364C227.411 139.047 228.018 138.888 228.718 138.888C229.287 138.888 229.791 139.005 230.23 139.238C230.669 139.471 231.009 139.798 231.252 140.218V135.92H232.428V146H231.364L231.252 144.852C231.028 145.188 230.706 145.491 230.286 145.762C229.866 146.033 229.339 146.168 228.704 146.168ZM228.83 145.146C229.297 145.146 229.707 145.039 230.062 144.824C230.426 144.6 230.706 144.292 230.902 143.9C231.107 143.508 231.21 143.051 231.21 142.528C231.21 142.005 231.107 141.548 230.902 141.156C230.706 140.764 230.426 140.461 230.062 140.246C229.707 140.022 229.297 139.91 228.83 139.91C228.373 139.91 227.962 140.022 227.598 140.246C227.243 140.461 226.963 140.764 226.758 141.156C226.562 141.548 226.464 142.005 226.464 142.528C226.464 143.051 226.562 143.508 226.758 143.9C226.963 144.292 227.243 144.6 227.598 144.824C227.962 145.039 228.373 145.146 228.83 145.146ZM234.751 146.07C234.518 146.07 234.322 145.995 234.163 145.846C234.014 145.687 233.939 145.496 233.939 145.272C233.939 145.048 234.014 144.861 234.163 144.712C234.322 144.553 234.518 144.474 234.751 144.474C234.975 144.474 235.162 144.553 235.311 144.712C235.47 144.861 235.549 145.048 235.549 145.272C235.549 145.496 235.47 145.687 235.311 145.846C235.162 145.995 234.975 146.07 234.751 146.07ZM237.149 146V136.2H240.369C241.135 136.2 241.765 136.326 242.259 136.578C242.754 136.83 243.118 137.171 243.351 137.6C243.594 138.029 243.715 138.515 243.715 139.056C243.715 139.588 243.599 140.069 243.365 140.498C243.132 140.927 242.768 141.273 242.273 141.534C241.779 141.786 241.144 141.912 240.369 141.912H238.325V146H237.149ZM238.325 140.918H240.341C241.125 140.918 241.681 140.755 242.007 140.428C242.343 140.092 242.511 139.635 242.511 139.056C242.511 138.468 242.343 138.011 242.007 137.684C241.681 137.348 241.125 137.18 240.341 137.18H238.325V140.918ZM247.927 146.168C247.236 146.168 246.629 146.009 246.107 145.692C245.593 145.375 245.192 144.941 244.903 144.39C244.623 143.839 244.483 143.214 244.483 142.514C244.483 141.814 244.627 141.193 244.917 140.652C245.206 140.101 245.607 139.672 246.121 139.364C246.634 139.047 247.241 138.888 247.941 138.888C248.51 138.888 249.014 139.005 249.453 139.238C249.891 139.471 250.232 139.798 250.475 140.218V135.92H251.651V146H250.587L250.475 144.852C250.251 145.188 249.929 145.491 249.509 145.762C249.089 146.033 248.561 146.168 247.927 146.168ZM248.053 145.146C248.519 145.146 248.93 145.039 249.285 144.824C249.649 144.6 249.929 144.292 250.125 143.9C250.33 143.508 250.433 143.051 250.433 142.528C250.433 142.005 250.33 141.548 250.125 141.156C249.929 140.764 249.649 140.461 249.285 140.246C248.93 140.022 248.519 139.91 248.053 139.91C247.595 139.91 247.185 140.022 246.821 140.246C246.466 140.461 246.186 140.764 245.981 141.156C245.785 141.548 245.687 142.005 245.687 142.528C245.687 143.051 245.785 143.508 245.981 143.9C246.186 144.292 246.466 144.6 246.821 144.824C247.185 145.039 247.595 145.146 248.053 145.146ZM253.946 146V140.05H252.896V139.056H253.946V137.852C253.946 137.18 254.114 136.69 254.45 136.382C254.786 136.074 255.276 135.92 255.92 135.92H256.62V136.928H256.102C255.747 136.928 255.495 137.003 255.346 137.152C255.196 137.292 255.122 137.535 255.122 137.88V139.056H256.83V140.05H255.122V146H253.946Z" fill="white"/>
<rect x="77" y="159" width="181" height="8" rx="4" fill="#333333"/>
<path d="M290 126.398C290 125.629 289.371 125 288.602 125C287.834 125 287.205 125.629 287.205 126.398C287.205 127.166 287.834 127.795 288.602 127.795C289.371 127.795 290 127.166 290 126.398Z" fill="#A4A4A4"/>
<path d="M290 136.182C290 135.413 289.371 134.784 288.602 134.784C287.834 134.784 287.205 135.413 287.205 136.182C287.205 136.95 287.834 137.579 288.602 137.579C289.371 137.579 290 136.95 290 136.182Z" fill="#A4A4A4"/>
<path d="M290 131.29C290 130.521 289.371 129.892 288.602 129.892C287.834 129.892 287.205 130.521 287.205 131.29C287.205 132.058 287.834 132.687 288.602 132.687C289.371 132.687 290 132.058 290 131.29Z" fill="#A4A4A4"/>
<circle cx="43" cy="212" r="22" fill="#DFFF9D"/>
<path d="M40.3384 209.313L44.5315 209.329M40.3148 215.603L43.4596 215.615M40.3266 212.458L46.6163 212.482" stroke="black" stroke-width="1.4" stroke-linecap="round"/>
<path d="M34.4173 209.239C35.1112 206.33 37.3931 204.065 40.3072 203.393C42.4117 202.908 44.5999 202.916 46.7007 203.417C49.6097 204.111 51.8745 206.393 52.5465 209.307C53.0318 211.412 53.0236 213.6 52.5225 215.701C51.8286 218.61 49.5467 220.874 46.6326 221.546C44.5281 222.032 42.3399 222.024 40.2391 221.522C37.3301 220.829 35.0653 218.547 34.3933 215.633C33.908 213.528 33.9162 211.34 34.4173 209.239Z" stroke="black" stroke-width="1.4"/>
<path d="M80.22 211.168C79.3333 211.168 78.638 210.921 78.134 210.426C77.63 209.931 77.378 209.245 77.378 208.368H78.568C78.568 208.863 78.6893 209.278 78.932 209.614C79.1747 209.95 79.5993 210.118 80.206 210.118C80.794 210.118 81.2 209.955 81.424 209.628C81.6573 209.301 81.774 208.895 81.774 208.41V201.2H82.95V208.41C82.95 209.278 82.7073 209.955 82.222 210.44C81.746 210.925 81.0787 211.168 80.22 211.168ZM88.1163 211.168C87.463 211.168 86.875 211.019 86.3523 210.72C85.8297 210.421 85.4143 210.001 85.1063 209.46C84.8077 208.909 84.6583 208.265 84.6583 207.528C84.6583 206.791 84.8123 206.151 85.1203 205.61C85.4283 205.059 85.8437 204.635 86.3663 204.336C86.8983 204.037 87.491 203.888 88.1443 203.888C88.7977 203.888 89.3857 204.037 89.9083 204.336C90.431 204.635 90.8417 205.059 91.1403 205.61C91.4483 206.151 91.6023 206.791 91.6023 207.528C91.6023 208.265 91.4483 208.909 91.1403 209.46C90.8323 210.001 90.4123 210.421 89.8803 210.72C89.3577 211.019 88.7697 211.168 88.1163 211.168ZM88.1163 210.16C88.5177 210.16 88.891 210.062 89.2363 209.866C89.5817 209.67 89.8617 209.376 90.0763 208.984C90.291 208.592 90.3983 208.107 90.3983 207.528C90.3983 206.949 90.291 206.464 90.0763 206.072C89.871 205.68 89.5957 205.386 89.2503 205.19C88.905 204.994 88.5363 204.896 88.1443 204.896C87.743 204.896 87.3697 204.994 87.0243 205.19C86.679 205.386 86.399 205.68 86.1843 206.072C85.9697 206.464 85.8623 206.949 85.8623 207.528C85.8623 208.107 85.9697 208.592 86.1843 208.984C86.399 209.376 86.6743 209.67 87.0103 209.866C87.3557 210.062 87.7243 210.16 88.1163 210.16ZM93.2375 211V200.92H94.4135V205.246C94.6468 204.817 94.9782 204.485 95.4075 204.252C95.8368 204.009 96.3035 203.888 96.8075 203.888C97.6102 203.888 98.2542 204.14 98.7395 204.644C99.2248 205.139 99.4675 205.904 99.4675 206.94V211H98.3055V207.066C98.3055 205.619 97.7222 204.896 96.5555 204.896C95.9488 204.896 95.4402 205.115 95.0295 205.554C94.6188 205.983 94.4135 206.599 94.4135 207.402V211H93.2375ZM101.249 211V204.056H102.313L102.383 205.302C102.607 204.863 102.929 204.518 103.349 204.266C103.769 204.014 104.245 203.888 104.777 203.888C105.599 203.888 106.252 204.14 106.737 204.644C107.232 205.139 107.479 205.904 107.479 206.94V211H106.303V207.066C106.303 205.619 105.706 204.896 104.511 204.896C103.914 204.896 103.415 205.115 103.013 205.554C102.621 205.983 102.425 206.599 102.425 207.402V211H101.249ZM116.158 211.168C115.439 211.168 114.814 211.037 114.282 210.776C113.75 210.515 113.339 210.151 113.05 209.684C112.761 209.217 112.616 208.676 112.616 208.06H113.848C113.848 208.443 113.937 208.797 114.114 209.124C114.291 209.441 114.548 209.698 114.884 209.894C115.229 210.081 115.654 210.174 116.158 210.174C116.821 210.174 117.334 210.015 117.698 209.698C118.062 209.381 118.244 208.984 118.244 208.508C118.244 208.116 118.16 207.803 117.992 207.57C117.824 207.327 117.595 207.131 117.306 206.982C117.026 206.833 116.699 206.702 116.326 206.59C115.962 206.478 115.579 206.352 115.178 206.212C114.422 205.951 113.862 205.629 113.498 205.246C113.134 204.854 112.952 204.345 112.952 203.72C112.943 203.197 113.064 202.735 113.316 202.334C113.568 201.923 113.923 201.606 114.38 201.382C114.847 201.149 115.397 201.032 116.032 201.032C116.657 201.032 117.199 201.149 117.656 201.382C118.123 201.615 118.482 201.937 118.734 202.348C118.995 202.759 119.131 203.225 119.14 203.748H117.908C117.908 203.477 117.838 203.211 117.698 202.95C117.558 202.679 117.343 202.46 117.054 202.292C116.774 202.124 116.419 202.04 115.99 202.04C115.458 202.031 115.019 202.166 114.674 202.446C114.338 202.726 114.17 203.113 114.17 203.608C114.17 204.028 114.287 204.35 114.52 204.574C114.763 204.798 115.099 204.985 115.528 205.134C115.957 205.274 116.452 205.437 117.012 205.624C117.479 205.792 117.899 205.988 118.272 206.212C118.645 206.436 118.935 206.725 119.14 207.08C119.355 207.435 119.462 207.887 119.462 208.438C119.462 208.905 119.341 209.348 119.098 209.768C118.855 210.179 118.487 210.515 117.992 210.776C117.507 211.037 116.895 211.168 116.158 211.168ZM121.06 211V204.056H122.124L122.208 205.064C122.432 204.691 122.73 204.401 123.104 204.196C123.477 203.991 123.897 203.888 124.364 203.888C124.914 203.888 125.386 204 125.778 204.224C126.179 204.448 126.487 204.789 126.702 205.246C126.944 204.826 127.276 204.495 127.696 204.252C128.125 204.009 128.587 203.888 129.082 203.888C129.912 203.888 130.575 204.14 131.07 204.644C131.564 205.139 131.812 205.904 131.812 206.94V211H130.65V207.066C130.65 206.347 130.505 205.806 130.216 205.442C129.926 205.078 129.511 204.896 128.97 204.896C128.41 204.896 127.943 205.115 127.57 205.554C127.206 205.983 127.024 206.599 127.024 207.402V211H125.848V207.066C125.848 206.347 125.703 205.806 125.414 205.442C125.124 205.078 124.709 204.896 124.168 204.896C123.617 204.896 123.155 205.115 122.782 205.554C122.418 205.983 122.236 206.599 122.236 207.402V211H121.06ZM134.297 202.516C134.064 202.516 133.868 202.441 133.709 202.292C133.56 202.133 133.485 201.937 133.485 201.704C133.485 201.48 133.56 201.293 133.709 201.144C133.868 200.995 134.064 200.92 134.297 200.92C134.521 200.92 134.713 200.995 134.871 201.144C135.03 201.293 135.109 201.48 135.109 201.704C135.109 201.937 135.03 202.133 134.871 202.292C134.713 202.441 134.521 202.516 134.297 202.516ZM133.709 211V204.056H134.885V211H133.709ZM139.677 211C139.042 211 138.543 210.846 138.179 210.538C137.815 210.23 137.633 209.675 137.633 208.872V205.05H136.429V204.056H137.633L137.787 202.39H138.809V204.056H140.853V205.05H138.809V208.872C138.809 209.311 138.897 209.609 139.075 209.768C139.252 209.917 139.565 209.992 140.013 209.992H140.741V211H139.677ZM142.347 211V200.92H143.523V205.246C143.756 204.817 144.088 204.485 144.517 204.252C144.946 204.009 145.413 203.888 145.917 203.888C146.72 203.888 147.364 204.14 147.849 204.644C148.334 205.139 148.577 205.904 148.577 206.94V211H147.415V207.066C147.415 205.619 146.832 204.896 145.665 204.896C145.058 204.896 144.55 205.115 144.139 205.554C143.728 205.983 143.523 206.599 143.523 207.402V211H142.347ZM150.219 212.61V211.504H157.555V212.61H150.219ZM162.491 211.168C161.8 211.168 161.194 211.009 160.671 210.692C160.158 210.375 159.756 209.941 159.467 209.39C159.187 208.839 159.047 208.214 159.047 207.514C159.047 206.814 159.192 206.193 159.481 205.652C159.77 205.101 160.172 204.672 160.685 204.364C161.198 204.047 161.805 203.888 162.505 203.888C163.074 203.888 163.578 204.005 164.017 204.238C164.456 204.471 164.796 204.798 165.039 205.218V200.92H166.215V211H165.151L165.039 209.852C164.815 210.188 164.493 210.491 164.073 210.762C163.653 211.033 163.126 211.168 162.491 211.168ZM162.617 210.146C163.084 210.146 163.494 210.039 163.849 209.824C164.213 209.6 164.493 209.292 164.689 208.9C164.894 208.508 164.997 208.051 164.997 207.528C164.997 207.005 164.894 206.548 164.689 206.156C164.493 205.764 164.213 205.461 163.849 205.246C163.494 205.022 163.084 204.91 162.617 204.91C162.16 204.91 161.749 205.022 161.385 205.246C161.03 205.461 160.75 205.764 160.545 206.156C160.349 206.548 160.251 207.005 160.251 207.528C160.251 208.051 160.349 208.508 160.545 208.9C160.75 209.292 161.03 209.6 161.385 209.824C161.749 210.039 162.16 210.146 162.617 210.146ZM171.296 211.168C170.643 211.168 170.055 211.019 169.532 210.72C169.009 210.421 168.594 210.001 168.286 209.46C167.987 208.909 167.838 208.265 167.838 207.528C167.838 206.791 167.992 206.151 168.3 205.61C168.608 205.059 169.023 204.635 169.546 204.336C170.078 204.037 170.671 203.888 171.324 203.888C171.977 203.888 172.565 204.037 173.088 204.336C173.611 204.635 174.021 205.059 174.32 205.61C174.628 206.151 174.782 206.791 174.782 207.528C174.782 208.265 174.628 208.909 174.32 209.46C174.012 210.001 173.592 210.421 173.06 210.72C172.537 211.019 171.949 211.168 171.296 211.168ZM171.296 210.16C171.697 210.16 172.071 210.062 172.416 209.866C172.761 209.67 173.041 209.376 173.256 208.984C173.471 208.592 173.578 208.107 173.578 207.528C173.578 206.949 173.471 206.464 173.256 206.072C173.051 205.68 172.775 205.386 172.43 205.19C172.085 204.994 171.716 204.896 171.324 204.896C170.923 204.896 170.549 204.994 170.204 205.19C169.859 205.386 169.579 205.68 169.364 206.072C169.149 206.464 169.042 206.949 169.042 207.528C169.042 208.107 169.149 208.592 169.364 208.984C169.579 209.376 169.854 209.67 170.19 209.866C170.535 210.062 170.904 210.16 171.296 210.16ZM177.557 211L175.527 204.056H176.703L178.173 209.502L179.797 204.056H181.127L182.765 209.502L184.221 204.056H185.411L183.381 211H182.177L180.469 205.274L178.761 211H177.557ZM186.712 211V204.056H187.776L187.846 205.302C188.07 204.863 188.392 204.518 188.812 204.266C189.232 204.014 189.708 203.888 190.24 203.888C191.061 203.888 191.715 204.14 192.2 204.644C192.695 205.139 192.942 205.904 192.942 206.94V211H191.766V207.066C191.766 205.619 191.169 204.896 189.974 204.896C189.377 204.896 188.877 205.115 188.476 205.554C188.084 205.983 187.888 206.599 187.888 207.402V211H186.712ZM194.724 211V200.92H195.9V211H194.724ZM200.991 211.168C200.338 211.168 199.75 211.019 199.227 210.72C198.705 210.421 198.289 210.001 197.981 209.46C197.683 208.909 197.533 208.265 197.533 207.528C197.533 206.791 197.687 206.151 197.995 205.61C198.303 205.059 198.719 204.635 199.241 204.336C199.773 204.037 200.366 203.888 201.019 203.888C201.673 203.888 202.261 204.037 202.783 204.336C203.306 204.635 203.717 205.059 204.015 205.61C204.323 206.151 204.477 206.791 204.477 207.528C204.477 208.265 204.323 208.909 204.015 209.46C203.707 210.001 203.287 210.421 202.755 210.72C202.233 211.019 201.645 211.168 200.991 211.168ZM200.991 210.16C201.393 210.16 201.766 210.062 202.111 209.866C202.457 209.67 202.737 209.376 202.951 208.984C203.166 208.592 203.273 208.107 203.273 207.528C203.273 206.949 203.166 206.464 202.951 206.072C202.746 205.68 202.471 205.386 202.125 205.19C201.78 204.994 201.411 204.896 201.019 204.896C200.618 204.896 200.245 204.994 199.899 205.19C199.554 205.386 199.274 205.68 199.059 206.072C198.845 206.464 198.737 206.949 198.737 207.528C198.737 208.107 198.845 208.592 199.059 208.984C199.274 209.376 199.549 209.67 199.885 209.866C200.231 210.062 200.599 210.16 200.991 210.16ZM208.422 211.168C207.844 211.168 207.363 211.07 206.98 210.874C206.598 210.678 206.313 210.417 206.126 210.09C205.94 209.763 205.846 209.409 205.846 209.026C205.846 208.317 206.117 207.771 206.658 207.388C207.2 207.005 207.937 206.814 208.87 206.814H210.746V206.73C210.746 206.123 210.588 205.666 210.27 205.358C209.953 205.041 209.528 204.882 208.996 204.882C208.539 204.882 208.142 204.999 207.806 205.232C207.48 205.456 207.274 205.787 207.19 206.226H205.986C206.033 205.722 206.201 205.297 206.49 204.952C206.789 204.607 207.158 204.345 207.596 204.168C208.035 203.981 208.502 203.888 208.996 203.888C209.967 203.888 210.695 204.149 211.18 204.672C211.675 205.185 211.922 205.871 211.922 206.73V211H210.872L210.802 209.754C210.606 210.146 210.317 210.482 209.934 210.762C209.561 211.033 209.057 211.168 208.422 211.168ZM208.604 210.174C209.052 210.174 209.435 210.057 209.752 209.824C210.079 209.591 210.326 209.287 210.494 208.914C210.662 208.541 210.746 208.149 210.746 207.738V207.724H208.968C208.278 207.724 207.788 207.845 207.498 208.088C207.218 208.321 207.078 208.615 207.078 208.97C207.078 209.334 207.209 209.628 207.47 209.852C207.741 210.067 208.119 210.174 208.604 210.174ZM216.837 211.168C216.146 211.168 215.539 211.009 215.017 210.692C214.503 210.375 214.102 209.941 213.813 209.39C213.533 208.839 213.393 208.214 213.393 207.514C213.393 206.814 213.537 206.193 213.827 205.652C214.116 205.101 214.517 204.672 215.031 204.364C215.544 204.047 216.151 203.888 216.851 203.888C217.42 203.888 217.924 204.005 218.363 204.238C218.801 204.471 219.142 204.798 219.385 205.218V200.92H220.561V211H219.497L219.385 209.852C219.161 210.188 218.839 210.491 218.419 210.762C217.999 211.033 217.471 211.168 216.837 211.168ZM216.963 210.146C217.429 210.146 217.84 210.039 218.195 209.824C218.559 209.6 218.839 209.292 219.035 208.9C219.24 208.508 219.343 208.051 219.343 207.528C219.343 207.005 219.24 206.548 219.035 206.156C218.839 205.764 218.559 205.461 218.195 205.246C217.84 205.022 217.429 204.91 216.963 204.91C216.505 204.91 216.095 205.022 215.731 205.246C215.376 205.461 215.096 205.764 214.891 206.156C214.695 206.548 214.597 207.005 214.597 207.528C214.597 208.051 214.695 208.508 214.891 208.9C215.096 209.292 215.376 209.6 215.731 209.824C216.095 210.039 216.505 210.146 216.963 210.146ZM222.884 211.07C222.65 211.07 222.454 210.995 222.296 210.846C222.146 210.687 222.072 210.496 222.072 210.272C222.072 210.048 222.146 209.861 222.296 209.712C222.454 209.553 222.65 209.474 222.884 209.474C223.108 209.474 223.294 209.553 223.444 209.712C223.602 209.861 223.682 210.048 223.682 210.272C223.682 210.496 223.602 210.687 223.444 210.846C223.294 210.995 223.108 211.07 222.884 211.07ZM225.282 211V201.2H228.502C229.267 201.2 229.897 201.326 230.392 201.578C230.887 201.83 231.251 202.171 231.484 202.6C231.727 203.029 231.848 203.515 231.848 204.056C231.848 204.588 231.731 205.069 231.498 205.498C231.265 205.927 230.901 206.273 230.406 206.534C229.911 206.786 229.277 206.912 228.502 206.912H226.458V211H225.282ZM226.458 205.918H228.474C229.258 205.918 229.813 205.755 230.14 205.428C230.476 205.092 230.644 204.635 230.644 204.056C230.644 203.468 230.476 203.011 230.14 202.684C229.813 202.348 229.258 202.18 228.474 202.18H226.458V205.918ZM236.059 211.168C235.369 211.168 234.762 211.009 234.239 210.692C233.726 210.375 233.325 209.941 233.035 209.39C232.755 208.839 232.615 208.214 232.615 207.514C232.615 206.814 232.76 206.193 233.049 205.652C233.339 205.101 233.74 204.672 234.253 204.364C234.767 204.047 235.373 203.888 236.073 203.888C236.643 203.888 237.147 204.005 237.585 204.238C238.024 204.471 238.365 204.798 238.607 205.218V200.92H239.783V211H238.719L238.607 209.852C238.383 210.188 238.061 210.491 237.641 210.762C237.221 211.033 236.694 211.168 236.059 211.168ZM236.185 210.146C236.652 210.146 237.063 210.039 237.417 209.824C237.781 209.6 238.061 209.292 238.257 208.9C238.463 208.508 238.565 208.051 238.565 207.528C238.565 207.005 238.463 206.548 238.257 206.156C238.061 205.764 237.781 205.461 237.417 205.246C237.063 205.022 236.652 204.91 236.185 204.91C235.728 204.91 235.317 205.022 234.953 205.246C234.599 205.461 234.319 205.764 234.113 206.156C233.917 206.548 233.819 207.005 233.819 207.528C233.819 208.051 233.917 208.508 234.113 208.9C234.319 209.292 234.599 209.6 234.953 209.824C235.317 210.039 235.728 210.146 236.185 210.146ZM242.078 211V205.05H241.028V204.056H242.078V202.852C242.078 202.18 242.246 201.69 242.582 201.382C242.918 201.074 243.408 200.92 244.052 200.92H244.752V201.928H244.234C243.88 201.928 243.628 202.003 243.478 202.152C243.329 202.292 243.254 202.535 243.254 202.88V204.056H244.962V205.05H243.254V211H242.078Z" fill="white"/>
<rect x="77" y="224" width="132" height="8" rx="4" fill="#333333"/>
<path d="M290 200.394C290 199.625 289.412 198.996 288.694 198.996C287.975 198.996 287.387 199.625 287.387 200.394C287.387 201.163 287.975 201.792 288.694 201.792C289.412 201.792 290 201.163 290 200.394Z" fill="#A4A4A4"/>
<path d="M290 210.178C290 209.409 289.412 208.78 288.694 208.78C287.975 208.78 287.387 209.409 287.387 210.178C287.387 210.947 287.975 211.575 288.694 211.575C289.412 211.575 290 210.947 290 210.178Z" fill="#A4A4A4"/>
<path d="M290 205.286C290 204.517 289.412 203.888 288.694 203.888C287.975 203.888 287.387 204.517 287.387 205.286C287.387 206.055 287.975 206.684 288.694 206.684C289.412 206.684 290 206.055 290 205.286Z" fill="#A4A4A4"/>
</svg>
